<?xml version="1.0" encoding="UTF-8" standalone="no"?>
<!-- Created with Inkscape (http://www.inkscape.org/) -->

<svg
   xmlns:dc="http://purl.org/dc/elements/1.1/"
   xmlns:cc="http://creativecommons.org/ns#"
   xmlns:rdf="http://www.w3.org/1999/02/22-rdf-syntax-ns#"
   xmlns:svg="http://www.w3.org/2000/svg"
   xmlns="http://www.w3.org/2000/svg"
   version="1.1"
   width="637.79999"
   height="637.78748"
   id="svg3049"
   xml:space="preserve"><metadata
     id="metadata3055"><rdf:RDF><cc:Work
         rdf:about=""><dc:format>image/svg+xml</dc:format><dc:type
           rdf:resource="http://purl.org/dc/dcmitype/StillImage" /><dc:title></dc:title></cc:Work></rdf:RDF></metadata><defs
     id="defs3053"><clipPath
       id="clipPath3063"><path
         d="m 0,510.23 510.24,0 L 510.24,0 0,0 0,510.23 z"
         id="path3065" /></clipPath></defs><g
     transform="matrix(1.25,0,0,-1.25,0,637.7875)"
     id="g3057"><g
       id="g3059"><g
         clip-path="url(#clipPath3063)"
         id="g3061"><g
           transform="translate(255.1196,510.2305)"
           id="g3067"><path
             d="m 0,0 c 140.83,0 255.12,-114.29 255.12,-255.12 0,-140.819 -114.29,-255.11 -255.12,-255.11 -140.82,0 -255.12,114.291 -255.12,255.11 C -255.12,-114.29 -140.82,0 0,0"
             id="path3069"
             style="fill:#000000;fill-opacity:1;fill-rule:evenodd;stroke:none" /></g><g
           transform="translate(255.1196,492.1304)"
           id="g3071"><path
             d="m 0,0 c 130.83,0 237.02,-106.18 237.02,-237.01 0,-130.84 -106.19,-237.02 -237.02,-237.02 -130.83,0 -237.02,106.18 -237.02,237.02 C -237.02,-106.18 -130.83,0 0,0"
             id="path3073"
             style="fill:#ed1c24;fill-opacity:1;fill-rule:evenodd;stroke:none" /></g><g
           transform="translate(255.1196,436.8306)"
           id="g3075"><path
             d="m 0,0 c 100.31,0 181.71,-81.41 181.71,-181.71 0,-100.31 -81.4,-181.72 -181.71,-181.72 -100.3,0 -181.71,81.41 -181.71,181.72 C -181.71,-81.41 -100.3,0 0,0"
             id="path3077"
             style="fill:#ffffff;fill-opacity:1;fill-rule:evenodd;stroke:none" /></g><g
           transform="translate(255.1196,425.7705)"
           id="g3079"><path
             d="m 0,0 c 94.2,0 170.66,-76.45 170.66,-170.66 0,-94.199 -76.46,-170.65 -170.66,-170.65 -94.2,0 -170.66,76.451 -170.66,170.65 C -170.66,-76.45 -94.2,0 0,0"
             id="path3081"
             style="fill:#1c427e;fill-opacity:1;fill-rule:evenodd;stroke:none" /></g><g
           transform="translate(61.7871,186.7764)"
           id="g3083"><path
             d="m 0,0 -1.976,4.591 c 3.602,1.652 4.962,3.965 4.08,6.935 -0.437,1.472 -1.166,2.515 -2.186,3.13 -1.02,0.615 -2.099,0.753 -3.236,0.416 -0.669,-0.199 -1.194,-0.515 -1.576,-0.949 -0.38,-0.434 -0.632,-0.996 -0.754,-1.687 -0.123,-0.693 -0.195,-2.302 -0.217,-4.828 -0.012,-2.26 -0.243,-3.983 -0.694,-5.165 -0.45,-1.182 -1.189,-2.236 -2.218,-3.161 -1.029,-0.924 -2.233,-1.591 -3.612,-2.001 -1.606,-0.475 -3.159,-0.541 -4.66,-0.192 -1.502,0.348 -2.771,1.066 -3.808,2.156 -1.038,1.09 -1.837,2.578 -2.398,4.465 -0.843,2.838 -0.731,5.281 0.336,7.332 1.066,2.049 3.017,3.546 5.853,4.49 l 1.71,-4.801 c -1.516,-0.682 -2.483,-1.472 -2.901,-2.369 -0.418,-0.896 -0.433,-2 -0.043,-3.31 0.389,-1.313 0.964,-2.241 1.723,-2.787 0.76,-0.547 1.548,-0.7 2.364,-0.457 0.803,0.239 1.383,0.76 1.741,1.566 0.358,0.806 0.521,2.463 0.49,4.974 -0.018,2.659 0.202,4.651 0.661,5.974 0.459,1.324 1.222,2.456 2.289,3.401 1.067,0.942 2.484,1.675 4.25,2.201 2.557,0.76 4.938,0.611 7.145,-0.445 C 4.57,18.423 6.171,16.222 7.164,12.876 8.921,6.96 6.533,2.669 0,0"
             id="path3085"
             style="fill:#000000;fill-opacity:1;fill-rule:nonzero;stroke:none" /></g><g
           transform="translate(50.8262,227.4902)"
           id="g3087"><path
             d="m 0,0 1.084,5.164 c 3.514,-0.203 6.197,-1.057 8.05,-2.563 1.853,-1.508 2.99,-3.55 3.412,-6.125 0.531,-3.238 -0.286,-6.068 -2.45,-8.488 -2.5,-2.786 -6.195,-4.579 -11.085,-5.382 -5.166,-0.846 -9.401,-0.344 -12.703,1.504 -2.867,1.611 -4.58,4.123 -5.141,7.54 -0.455,2.782 0.114,5.267 1.708,7.452 1.131,1.557 2.975,2.864 5.532,3.919 L -9.334,-1.7 c -1.587,-0.586 -2.741,-1.422 -3.461,-2.509 -0.72,-1.088 -0.975,-2.271 -0.765,-3.553 0.301,-1.833 1.344,-3.196 3.132,-4.092 1.787,-0.895 4.521,-1.042 8.199,-0.438 3.816,0.626 6.437,1.636 7.864,3.03 1.427,1.393 1.992,2.992 1.696,4.797 C 7.115,-3.142 6.414,-2.083 5.229,-1.287 4.045,-0.491 2.302,-0.062 0,0"
             id="path3089"
             style="fill:#000000;fill-opacity:1;fill-rule:nonzero;stroke:none" /></g><g
           transform="translate(60.7964,238.5464)"
           id="g3091"><path
             d="m 0,0 -30.682,-0.989 -0.164,5.065 12.077,0.389 -0.321,9.962 -12.077,-0.389 -0.164,5.086 30.683,0.989 0.164,-5.086 L -13.9,14.594 -13.579,4.632 -0.163,5.065 0,0 z"
             id="path3093"
             style="fill:#000000;fill-opacity:1;fill-rule:nonzero;stroke:none" /></g><g
           transform="translate(45.3862,269.7144)"
           id="g3095"><path
             d="m 0,0 c 3.515,-0.358 6.219,0.04 8.113,1.195 1.893,1.155 2.94,2.719 3.141,4.692 0.203,1.986 -0.502,3.721 -2.112,5.205 C 7.531,12.576 4.92,13.501 1.307,13.87 -2.236,14.23 -4.919,13.861 -6.744,12.763 -8.568,11.664 -9.585,10.087 -9.795,8.03 -10.004,5.974 -9.32,4.212 -7.743,2.747 -6.165,1.28 -3.584,0.365 0,0 m -0.323,-5.231 c -3.639,0.37 -6.582,1.213 -8.827,2.53 -2.246,1.317 -3.857,2.902 -4.833,4.757 -0.976,1.854 -1.338,4.017 -1.087,6.491 0.365,3.584 2.031,6.366 4.998,8.346 2.968,1.978 6.98,2.71 12.037,2.195 5.113,-0.521 8.986,-2.123 11.618,-4.805 2.33,-2.358 3.311,-5.336 2.944,-8.934 C 16.158,1.723 14.609,-1.011 11.88,-2.853 8.761,-4.949 4.693,-5.743 -0.323,-5.231"
             id="path3097"
             style="fill:#000000;fill-opacity:1;fill-rule:nonzero;stroke:none" /></g><g
           transform="translate(49.4736,298.959)"
           id="g3099"><path
             d="m 0,0 c 3.43,-0.848 6.164,-0.833 8.2,0.045 2.037,0.877 3.294,2.279 3.769,4.205 0.479,1.938 0.026,3.755 -1.361,5.451 -1.386,1.694 -3.843,2.977 -7.368,3.848 -3.457,0.854 -6.166,0.866 -8.127,0.034 C -6.847,12.751 -8.076,11.332 -8.572,9.326 -9.067,7.319 -8.638,5.479 -7.281,3.807 -5.925,2.133 -3.498,0.864 0,0 m -1.053,-5.135 c -3.553,0.878 -6.348,2.126 -8.386,3.746 -2.039,1.618 -3.412,3.414 -4.118,5.387 -0.706,1.972 -0.761,4.166 -0.165,6.579 0.865,3.498 2.905,6.018 6.12,7.562 3.216,1.543 7.291,1.704 12.226,0.485 4.99,-1.233 8.599,-3.363 10.83,-6.388 1.974,-2.661 2.528,-5.747 1.66,-9.258 C 16.24,-0.561 14.323,-3.051 11.363,-4.492 7.98,-6.13 3.842,-6.345 -1.053,-5.135"
             id="path3101"
             style="fill:#000000;fill-opacity:1;fill-rule:nonzero;stroke:none" /></g><g
           transform="translate(70.5005,317.7485)"
           id="g3103"><path
             d="m 0,0 -28.41,10.977 1.827,4.729 L -2.999,6.593 1.561,18.395 6.386,16.53 0,0 z"
             id="path3105"
             style="fill:#000000;fill-opacity:1;fill-rule:nonzero;stroke:none" /></g><g
           transform="translate(71.7598,358.0005)"
           id="g3107"><path
             d="m 0,0 c 3.021,-1.833 5.635,-2.633 7.841,-2.403 2.205,0.229 3.822,1.192 4.851,2.888 1.036,1.707 1.144,3.577 0.327,5.608 C 12.201,8.124 10.24,10.082 7.136,11.965 4.091,13.812 1.509,14.631 -0.61,14.422 -2.73,14.213 -4.326,13.226 -5.397,11.458 -6.47,9.691 -6.608,7.807 -5.813,5.806 -5.018,3.804 -3.08,1.869 0,0 m -2.536,-4.586 c -3.128,1.898 -5.423,3.923 -6.886,6.077 -1.463,2.152 -2.237,4.276 -2.323,6.369 -0.086,2.094 0.516,4.203 1.805,6.328 1.869,3.081 4.568,4.878 8.097,5.392 3.53,0.513 7.467,-0.549 11.813,-3.185 4.394,-2.666 7.204,-5.774 8.429,-9.327 1.092,-3.129 0.7,-6.239 -1.176,-9.331 C 15.333,-5.38 12.76,-7.185 9.506,-7.676 5.788,-8.23 1.774,-7.201 -2.536,-4.586"
             id="path3109"
             style="fill:#000000;fill-opacity:1;fill-rule:nonzero;stroke:none" /></g><g
           transform="translate(97.3716,369.5898)"
           id="g3111"><path
             d="m 0,0 -24.07,19.087 10.728,13.529 4.072,-3.229 -7.577,-9.555 5.697,-4.519 6.549,8.26 4.072,-3.229 L -7.078,12.085 3.151,3.973 0,0 z"
             id="path3113"
             style="fill:#000000;fill-opacity:1;fill-rule:nonzero;stroke:none" /></g><g
           transform="translate(117.6797,393.3477)"
           id="g3115"><path
             d="m 0,0 -20.607,22.76 13.849,12.538 3.486,-3.85 -10.091,-9.137 4.568,-5.045 9.377,8.49 3.472,-3.835 -9.378,-8.49 L 0.285,7.236 10.718,16.682 14.19,12.848 0,0 z"
             id="path3117"
             style="fill:#000000;fill-opacity:1;fill-rule:nonzero;stroke:none" /></g><g
           transform="translate(117.5796,434.0103)"
           id="g3119"><path
             d="m 0,0 4.15,2.909 9.543,-13.618 c 1.482,-2.116 2.499,-3.458 3.05,-4.026 0.961,-0.981 1.999,-1.532 3.115,-1.653 1.116,-0.121 2.24,0.215 3.372,1.008 0.961,0.673 1.594,1.436 1.899,2.29 0.306,0.853 0.304,1.738 -0.005,2.655 -0.311,0.916 -1.343,2.626 -3.098,5.131 l -9.746,13.909 4.168,2.92 9.254,-13.206 c 2.363,-3.373 3.891,-5.937 4.585,-7.693 0.692,-1.756 0.734,-3.543 0.124,-5.359 -0.61,-1.818 -1.951,-3.452 -4.019,-4.902 -2.15,-1.507 -4.099,-2.296 -5.846,-2.369 -1.747,-0.074 -3.383,0.4 -4.907,1.42 -1.525,1.019 -3.605,3.41 -6.242,7.172 L 0,0 z"
             id="path3121"
             style="fill:#000000;fill-opacity:1;fill-rule:nonzero;stroke:none" /></g><g
           transform="translate(152.5337,441.2603)"
           id="g3123"><path
             d="M 0,0 3.342,1.745 C 5.385,2.811 6.638,3.58 7.101,4.05 7.564,4.521 7.828,5.118 7.89,5.845 7.952,6.57 7.747,7.384 7.276,8.288 6.823,9.155 6.286,9.76 5.665,10.106 5.043,10.451 4.384,10.568 3.687,10.456 3.195,10.372 1.94,9.803 -0.078,8.75 L -3.606,6.909 0,0 z m 3.707,-18.057 -14.211,27.225 9.489,4.954 c 2.427,1.266 4.287,1.926 5.582,1.981 1.295,0.054 2.592,-0.349 3.891,-1.207 1.299,-0.858 2.388,-2.129 3.267,-3.813 C 12.836,8.954 13.221,6.973 12.878,5.14 12.535,3.306 11.51,1.731 9.803,0.415 c 1.327,-0.189 2.522,-0.53 3.583,-1.024 1.061,-0.494 2.693,-1.521 4.893,-3.082 l 5.484,-3.896 -5.367,-2.802 -6.361,4.219 C 9.741,-4.643 8.243,-3.72 7.542,-3.4 6.839,-3.082 6.199,-2.943 5.622,-2.984 5.044,-3.026 4.237,-3.318 3.196,-3.861 L 2.268,-4.345 8.201,-15.71 3.707,-18.057 z"
             id="path3125"
             style="fill:#000000;fill-opacity:1;fill-rule:nonzero;stroke:none" /></g><g
           transform="translate(177.6626,450.6025)"
           id="g3127"><path
             d="m 0,0 c 1.194,-3.325 2.721,-5.591 4.58,-6.799 1.858,-1.209 3.72,-1.478 5.587,-0.808 1.878,0.675 3.139,2.059 3.781,4.152 0.642,2.093 0.349,4.848 -0.878,8.264 -1.204,3.35 -2.695,5.61 -4.473,6.782 -1.779,1.17 -3.64,1.406 -5.585,0.707 C 1.067,11.599 -0.225,10.223 -0.866,8.167 -1.507,6.112 -1.219,3.389 0,0 m -4.856,-1.968 c -1.238,3.442 -1.748,6.46 -1.53,9.053 0.219,2.593 0.952,4.73 2.203,6.411 1.25,1.681 3.045,2.941 5.383,3.782 3.389,1.218 6.617,0.917 9.683,-0.904 3.065,-1.822 5.457,-5.123 7.177,-9.906 1.737,-4.835 1.965,-9.018 0.683,-12.55 -1.12,-3.118 -3.382,-5.288 -6.785,-6.511 -3.429,-1.232 -6.562,-1.016 -9.401,0.649 -3.238,1.907 -5.709,5.233 -7.413,9.976"
             id="path3129"
             style="fill:#000000;fill-opacity:1;fill-rule:nonzero;stroke:none" /></g><g
           transform="translate(204.3618,469.5474)"
           id="g3131"><path
             d="m 0,0 1.847,-8.519 2.743,0.595 c 1.844,0.399 3.068,0.8 3.674,1.204 0.606,0.403 1.047,0.988 1.324,1.756 0.277,0.767 0.308,1.642 0.096,2.625 C 9.468,-1.343 9.067,-0.55 8.483,0.038 7.897,0.625 7.259,0.966 6.568,1.059 5.875,1.152 4.492,0.974 2.417,0.524 L 0,0 z M 0.451,-26.017 -6.057,4.005 1.93,5.736 c 2.975,0.645 4.952,0.923 5.93,0.835 1.561,-0.148 2.98,-0.876 4.258,-2.186 1.277,-1.31 2.174,-3.159 2.693,-5.548 0.47,-2.171 0.454,-4.079 -0.046,-5.724 -0.501,-1.645 -1.302,-2.898 -2.402,-3.758 -1.1,-0.86 -3.152,-1.616 -6.155,-2.267 l -3.256,-0.706 2.454,-11.324 -4.955,-1.075 z"
             id="path3133"
             style="fill:#000000;fill-opacity:1;fill-rule:nonzero;stroke:none" /></g><g
           transform="translate(227.832,448.1992)"
           id="g3135"><path
             d="M 0,0 -2.836,30.574 15.767,32.3 16.247,27.127 2.691,25.87 3.319,19.092 15.916,20.261 16.394,15.11 3.798,13.941 4.569,5.62 18.584,6.92 19.063,1.768 0,0 z"
             id="path3137"
             style="fill:#000000;fill-opacity:1;fill-rule:nonzero;stroke:none" /></g><g
           transform="translate(265.0713,461.7871)"
           id="g3139"><path
             d="M 0,0 -2.971,11.535 -6.866,0.292 0,0 z m 8.842,-12.539 -5.526,0.234 -1.902,7.065 -10.049,0.426 -2.368,-6.883 -5.401,0.229 11.099,30.275 5.38,-0.229 8.767,-31.117 z"
             id="path3141"
             style="fill:#000000;fill-opacity:1;fill-rule:nonzero;stroke:none" /></g><g
           transform="translate(276.6621,448.9604)"
           id="g3143"><path
             d="M 0,0 4.924,30.304 9.803,29.511 16.685,7.622 19.973,27.858 24.645,27.099 19.72,-3.205 14.676,-2.385 7.883,19.002 4.672,-0.759 0,0 z"
             id="path3145"
             style="fill:#000000;fill-opacity:1;fill-rule:nonzero;stroke:none" /></g><g
           transform="translate(313.1577,451.8086)"
           id="g3147"><path
             d="m 0,0 4.879,-1.092 c -0.773,-3.888 0.303,-6.346 3.229,-7.374 1.45,-0.509 2.723,-0.531 3.819,-0.064 1.097,0.466 1.842,1.259 2.235,2.379 0.232,0.659 0.283,1.27 0.156,1.833 -0.129,0.563 -0.437,1.097 -0.926,1.602 -0.489,0.505 -1.75,1.507 -3.785,3.007 C 7.782,1.626 6.521,2.824 5.828,3.883 5.133,4.941 4.713,6.158 4.567,7.535 c -0.145,1.376 0.02,2.742 0.497,4.1 0.556,1.581 1.415,2.879 2.577,3.891 1.163,1.013 2.49,1.62 3.982,1.822 1.492,0.2 3.167,-0.025 5.025,-0.677 2.794,-0.982 4.709,-2.506 5.745,-4.571 1.036,-2.068 1.105,-4.527 0.206,-7.38 l -4.894,1.431 c 0.336,1.629 0.263,2.876 -0.218,3.741 -0.481,0.864 -1.367,1.523 -2.659,1.977 -1.291,0.453 -2.381,0.533 -3.269,0.238 C 10.67,11.812 10.084,11.263 9.803,10.459 9.525,9.668 9.607,8.892 10.05,8.128 c 0.443,-0.762 1.691,-1.866 3.744,-3.313 2.167,-1.545 3.652,-2.892 4.455,-4.04 0.803,-1.149 1.273,-2.432 1.413,-3.85 0.138,-1.418 -0.098,-2.997 -0.709,-4.736 -0.885,-2.517 -2.402,-4.36 -4.552,-5.53 -2.15,-1.169 -4.872,-1.176 -8.167,-0.018 C 0.409,-11.313 -1.669,-6.86 0,0"
             id="path3149"
             style="fill:#000000;fill-opacity:1;fill-rule:nonzero;stroke:none" /></g><g
           transform="translate(336.3696,432.4897)"
           id="g3151"><path
             d="M 0,0 8.969,29.969 13.584,27.542 7.105,7.123 20.998,23.644 26.354,20.827 20.285,-0.209 33.694,16.967 38.217,14.589 18.516,-9.737 13.734,-7.222 19.968,15.431 4.875,-2.563 0,0 z"
             id="path3153"
             style="fill:#000000;fill-opacity:1;fill-rule:nonzero;stroke:none" /></g><g
           transform="translate(374.9106,427.8931)"
           id="g3155"><path
             d="m 0,0 c -2.108,-2.833 -3.153,-5.359 -3.131,-7.576 0.021,-2.216 0.826,-3.916 2.417,-5.1 1.601,-1.192 3.451,-1.476 5.55,-0.854 2.099,0.622 4.231,2.389 6.398,5.301 2.125,2.855 3.183,5.348 3.176,7.477 C 14.401,1.376 13.568,3.057 11.911,4.291 10.253,5.524 8.392,5.84 6.325,5.237 4.258,4.635 2.15,2.889 0,0 m -4.325,2.957 c 2.184,2.934 4.416,5.027 6.697,6.28 2.28,1.252 4.466,1.823 6.558,1.71 2.091,-0.113 4.133,-0.91 6.127,-2.393 2.889,-2.151 4.423,-5.006 4.602,-8.566 0.178,-3.561 -1.249,-7.38 -4.283,-11.456 -3.067,-4.121 -6.427,-6.624 -10.078,-7.51 -3.216,-0.791 -6.275,-0.106 -9.175,2.052 -2.924,2.175 -4.476,4.905 -4.659,8.191 -0.2,3.752 1.203,7.649 4.211,11.692"
             id="path3157"
             style="fill:#000000;fill-opacity:1;fill-rule:nonzero;stroke:none" /></g><g
           transform="translate(400.0796,410.5581)"
           id="g3159"><path
             d="m 0,0 2.695,-2.636 c 1.647,-1.611 2.765,-2.563 3.356,-2.858 0.591,-0.295 1.241,-0.359 1.95,-0.193 0.709,0.166 1.42,0.613 2.133,1.342 0.683,0.698 1.092,1.396 1.228,2.094 0.135,0.697 0.041,1.36 -0.281,1.989 C 10.849,0.179 9.919,1.196 8.292,2.787 L 5.448,5.57 0,0 z m -16.012,-9.123 21.469,21.95 7.65,-7.484 c 1.956,-1.913 3.161,-3.477 3.614,-4.691 0.452,-1.215 0.472,-2.572 0.06,-4.072 -0.413,-1.501 -1.283,-2.93 -2.612,-4.287 -1.679,-1.717 -3.442,-2.696 -5.291,-2.939 -1.849,-0.243 -3.663,0.243 -5.444,1.458 0.232,-1.321 0.277,-2.562 0.138,-3.724 -0.141,-1.161 -0.611,-3.03 -1.412,-5.606 l -2.002,-6.42 -4.327,4.232 2.036,7.353 c 0.741,2.655 1.154,4.365 1.239,5.131 0.085,0.766 0.019,1.417 -0.199,1.953 -0.219,0.536 -0.747,1.213 -1.585,2.034 l -0.749,0.732 -8.962,-9.163 -3.623,3.543 z"
             id="path3161"
             style="fill:#000000;fill-opacity:1;fill-rule:nonzero;stroke:none" /></g><g
           transform="translate(425.1479,395.2715)"
           id="g3163"><path
             d="m 0,0 -15.981,-12.584 2.358,-2.995 c 1.011,-1.284 1.864,-2.119 2.559,-2.504 0.695,-0.386 1.431,-0.57 2.209,-0.554 0.778,0.017 1.789,0.32 3.032,0.908 1.243,0.587 2.726,1.56 4.448,2.916 1.789,1.409 3.102,2.642 3.939,3.701 0.836,1.059 1.346,2.082 1.528,3.07 0.182,0.988 0.073,1.928 -0.328,2.821 -0.298,0.672 -1.077,1.809 -2.339,3.411 L 0,0 z m 0.945,7.197 5.741,-7.291 c 1.451,-1.843 2.341,-3.396 2.668,-4.658 0.328,-1.262 0.313,-2.673 -0.04,-4.231 -0.355,-1.559 -1.135,-3.177 -2.338,-4.854 -1.204,-1.677 -2.963,-3.427 -5.278,-5.249 -2.085,-1.642 -4.084,-2.834 -5.997,-3.576 -1.913,-0.742 -3.605,-1.106 -5.074,-1.09 -1.471,0.016 -2.837,0.357 -4.1,1.025 -1.263,0.667 -2.53,1.807 -3.8,3.42 l -5.91,7.505 24.128,18.999 z"
             id="path3165"
             style="fill:#000000;fill-opacity:1;fill-rule:nonzero;stroke:none" /></g><g
           transform="translate(425.3066,369.4922)"
           id="g3167"><path
             d="m 0,0 3.063,-3.95 c -3.073,-2.503 -3.811,-5.082 -2.211,-7.738 0.792,-1.315 1.758,-2.143 2.9,-2.482 1.142,-0.339 2.221,-0.203 3.238,0.409 0.598,0.361 1.027,0.799 1.287,1.313 0.261,0.516 0.363,1.123 0.308,1.824 -0.055,0.7 -0.389,2.276 -1.001,4.727 -0.554,2.193 -0.761,3.918 -0.622,5.176 0.14,1.257 0.591,2.462 1.356,3.616 0.764,1.152 1.763,2.1 2.995,2.842 1.435,0.864 2.923,1.316 4.464,1.356 1.541,0.039 2.951,-0.339 4.228,-1.134 1.278,-0.796 2.425,-2.037 3.44,-3.724 1.527,-2.536 2.032,-4.93 1.513,-7.182 -0.519,-2.252 -2.033,-4.19 -4.542,-5.815 l -2.859,4.22 c 1.297,1.042 2.035,2.048 2.216,3.021 0.18,0.972 -0.083,2.044 -0.788,3.217 C 18.278,0.868 17.489,1.624 16.618,1.962 15.745,2.301 14.944,2.25 14.214,1.811 13.497,1.379 13.065,0.729 12.92,-0.141 c -0.144,-0.87 0.114,-2.516 0.774,-4.938 0.684,-2.571 0.97,-4.554 0.857,-5.951 -0.113,-1.396 -0.568,-2.684 -1.364,-3.865 -0.797,-1.181 -1.985,-2.246 -3.564,-3.197 -2.286,-1.376 -4.628,-1.829 -7.029,-1.36 -2.403,0.469 -4.503,2.199 -6.304,5.19 C -6.894,-8.975 -5.657,-4.221 0,0"
             id="path3169"
             style="fill:#000000;fill-opacity:1;fill-rule:nonzero;stroke:none" /></g><g
           transform="translate(429.3599,343.1245)"
           id="g3171"><path
             d="M 0,0 28.199,12.138 31.205,5.156 13.774,-7.317 34.798,-3.193 37.812,-10.194 9.612,-22.333 7.75,-18.004 29.948,-8.449 5.771,-13.407 3.833,-8.906 24.069,5.208 1.871,-4.347 0,0 z"
             id="path3173"
             style="fill:#000000;fill-opacity:1;fill-rule:nonzero;stroke:none" /></g><g
           transform="translate(455.7393,306.2349)"
           id="g3175"><path
             d="M 0,0 10.092,6.32 -1.8,6.631 0,0 z m -9.273,-12.219 -1.449,5.338 6.156,3.949 -2.633,9.703 -7.275,0.175 -1.415,5.216 32.203,-1.418 1.411,-5.196 -26.998,-17.767 z"
             id="path3177"
             style="fill:#000000;fill-opacity:1;fill-rule:nonzero;stroke:none" /></g><g
           transform="translate(446.8521,291.2764)"
           id="g3179"><path
             d="m 0,0 30.428,4.097 0.66,-4.898 -18.946,-12.948 20.32,2.736 0.632,-4.691 L 2.666,-19.801 1.984,-14.736 20.475,-2.02 0.632,-4.691 0,0 z"
             id="path3181"
             style="fill:#000000;fill-opacity:1;fill-rule:nonzero;stroke:none" /></g><g
           transform="translate(459.8315,267.4834)"
           id="g3183"><path
             d="m 0,0 0.631,-4.959 c -3.92,-0.594 -5.865,-2.44 -5.838,-5.541 0.014,-1.536 0.426,-2.74 1.237,-3.613 0.811,-0.872 1.809,-1.304 2.997,-1.293 0.698,0.006 1.29,0.165 1.776,0.476 0.486,0.312 0.884,0.784 1.192,1.415 0.309,0.631 0.822,2.158 1.541,4.58 0.637,2.171 1.335,3.762 2.094,4.774 0.76,1.013 1.761,1.822 3.006,2.426 1.245,0.604 2.586,0.913 4.025,0.925 1.675,0.016 3.187,-0.352 4.534,-1.101 1.347,-0.749 2.369,-1.791 3.066,-3.125 0.696,-1.334 1.052,-2.986 1.071,-4.956 0.025,-2.96 -0.757,-5.278 -2.348,-6.954 -1.591,-1.676 -3.881,-2.576 -6.869,-2.701 l -0.317,5.087 c 1.646,0.239 2.794,0.731 3.444,1.477 0.649,0.746 0.968,1.803 0.956,3.171 -0.012,1.369 -0.308,2.421 -0.887,3.156 -0.579,0.735 -1.294,1.099 -2.146,1.091 -0.838,-0.007 -1.54,-0.349 -2.107,-1.024 -0.567,-0.676 -1.182,-2.224 -1.845,-4.646 -0.717,-2.562 -1.479,-4.416 -2.286,-5.561 -0.807,-1.146 -1.853,-2.024 -3.139,-2.636 -1.288,-0.613 -2.852,-0.926 -4.695,-0.943 -2.668,-0.024 -4.916,0.777 -6.746,2.401 -1.83,1.625 -2.761,4.183 -2.792,7.674 C -10.5,-4.227 -7.018,-0.761 0,0"
             id="path3185"
             style="fill:#000000;fill-opacity:1;fill-rule:nonzero;stroke:none" /></g><g
           transform="translate(449.8022,242.6108)"
           id="g3187"><path
             d="m 0,0 30.497,-3.521 -0.581,-5.034 -12.003,1.386 -1.143,-9.903 12.003,-1.386 -0.584,-5.054 -30.497,3.52 0.584,5.055 13.335,-1.539 1.142,9.902 -13.334,1.54 L 0,0 z"
             id="path3189"
             style="fill:#000000;fill-opacity:1;fill-rule:nonzero;stroke:none" /></g><g
           transform="translate(446.3481,217.6445)"
           id="g3191"><path
             d="M 0,0 30.068,-6.259 29.035,-11.223 -1.033,-4.963 0,0 z"
             id="path3193"
             style="fill:#000000;fill-opacity:1;fill-rule:nonzero;stroke:none" /></g><g
           transform="translate(467.3779,195.7002)"
           id="g3195"><path
             d="m 0,0 -8.348,2.503 -0.806,-2.69 c -0.542,-1.805 -0.783,-3.071 -0.722,-3.796 0.059,-0.725 0.358,-1.394 0.896,-2.007 0.538,-0.613 1.288,-1.065 2.252,-1.353 0.976,-0.293 1.863,-0.325 2.66,-0.098 0.797,0.227 1.404,0.622 1.82,1.182 0.416,0.561 0.929,1.858 1.539,3.892 L 0,0 z M -22.986,12.183 6.433,3.365 4.087,-4.462 C 3.212,-7.378 2.5,-9.242 1.951,-10.055 c -0.885,-1.295 -2.208,-2.183 -3.972,-2.669 -1.764,-0.485 -3.816,-0.377 -6.157,0.326 -2.128,0.638 -3.79,1.573 -4.987,2.807 -1.198,1.235 -1.907,2.54 -2.127,3.918 -0.222,1.379 0.109,3.539 0.991,6.484 l 0.956,3.189 -11.097,3.327 1.456,4.856 z"
             id="path3197"
             style="fill:#000000;fill-opacity:1;fill-rule:nonzero;stroke:none" /></g><g
           transform="translate(362.4995,150.7705)"
           id="g3199"><path
             d="M 0,0 6.65,6.96 C 17,18.69 25.58,32.09 31.9,46.779 l 2.33,6.25 -26.55,-7.38 -8,28.791 -0.45,-1.73 C -5.61,57.42 -13.65,43.69 -24.03,32.21 L -28.06,28.109 0,0 z"
             id="path3201"
             style="fill:#fabd41;fill-opacity:1;fill-rule:evenodd;stroke:none" /></g><g
           transform="translate(362.4995,150.7705)"
           id="g3203"><path
             d="M 0,0 6.65,6.96 C 17,18.69 25.58,32.09 31.9,46.779 l 2.33,6.25 -26.55,-7.38 -8,28.791 -0.45,-1.73 C -5.61,57.42 -13.65,43.69 -24.03,32.21 L -28.06,28.109 0,0 z"
             id="path3205"
             style="fill:none;stroke:#000000;stroke-width:2.68000007;stroke-linecap:butt;stroke-linejoin:miter;stroke-miterlimit:4;stroke-opacity:1;stroke-dasharray:none" /></g><g
           transform="translate(147.7295,150.7705)"
           id="g3207"><path
             d="M 0,0 -6.64,6.96 C -17,18.69 -25.57,32.09 -31.89,46.779 l -2.33,6.25 26.54,-7.38 8,28.791 0.451,-1.73 C 5.62,57.42 13.65,43.69 24.03,32.21 L 28.07,28.109 0,0 z"
             id="path3209"
             style="fill:#fabd41;fill-opacity:1;fill-rule:evenodd;stroke:none" /></g><g
           transform="translate(147.7295,150.7705)"
           id="g3211"><path
             d="M 0,0 -6.64,6.96 C -17,18.69 -25.57,32.09 -31.89,46.779 l -2.33,6.25 26.54,-7.38 8,28.791 0.451,-1.73 C 5.62,57.42 13.65,43.69 24.03,32.21 L 28.07,28.109 0,0 z"
             id="path3213"
             style="fill:none;stroke:#000000;stroke-width:2.68000007;stroke-linecap:butt;stroke-linejoin:miter;stroke-miterlimit:4;stroke-opacity:1;stroke-dasharray:none" /></g><g
           transform="translate(255.1196,95.5107)"
           id="g3215"><path
             d="m 0,0 c -55.06,0 -103.64,27.93 -132.33,70.39 l -2.27,3.729 35.62,22.62 L -97.31,94 C -76.22,62.78 -40.49,42.239 0,42.239 40.49,42.239 76.21,62.78 97.31,94 l 1.67,2.739 35.62,-22.62 -2.27,-3.729 C 103.64,27.93 55.06,0 0,0"
             id="path3217"
             style="fill:#fabd41;fill-opacity:1;fill-rule:evenodd;stroke:none" /></g><g
           transform="translate(255.1196,95.5107)"
           id="g3219"><path
             d="m 0,0 c -55.06,0 -103.64,27.93 -132.33,70.39 l -2.27,3.729 35.62,22.62 L -97.31,94 C -76.22,62.78 -40.49,42.239 0,42.239 40.49,42.239 76.21,62.78 97.31,94 l 1.67,2.739 35.62,-22.62 -2.27,-3.729 C 103.64,27.93 55.06,0 0,0 z"
             id="path3221"
             style="fill:none;stroke:#000000;stroke-width:2.68000007;stroke-linecap:butt;stroke-linejoin:miter;stroke-miterlimit:4;stroke-opacity:1;stroke-dasharray:none" /></g><g
           transform="translate(173.8096,177.9307)"
           id="g3223"><path
             d="m 0,0 -18.8,14.01 1.56,2.179 L 1.56,2.18 0,0 z"
             id="path3225"
             style="fill:#000000;fill-opacity:1;fill-rule:evenodd;stroke:none" /></g><g
           transform="translate(336.4199,177.9307)"
           id="g3227"><path
             d="M 0,0 18.8,14.01 17.24,16.189 -1.56,2.18 0,0 z"
             id="path3229"
             style="fill:#000000;fill-opacity:1;fill-rule:evenodd;stroke:none" /></g><g
           transform="translate(136.9746,161.2207)"
           id="g3231"><path
             d="M 0,0 19.651,15.429 21.325,13.297 1.673,-2.131 0,0 z"
             id="path3233"
             style="fill:#000000;fill-opacity:1;fill-rule:nonzero;stroke:none" /></g><g
           transform="translate(141.4307,155.3721)"
           id="g3235"><path
             d="M 0,0 17.929,17.405 19.864,15.412 13.292,-5.982 27.368,7.683 29.173,5.823 11.244,-11.581 9.308,-9.588 15.905,11.807 1.816,-1.871 0,0 z"
             id="path3237"
             style="fill:#000000;fill-opacity:1;fill-rule:nonzero;stroke:none" /></g><g
           transform="translate(175.7798,138.3828)"
           id="g3239"><path
             d="m 0,0 1.637,2.432 7.205,-4.83 -5.176,-7.69 c -1.827,-0.333 -3.511,-0.373 -5.054,-0.122 -1.543,0.251 -2.937,0.795 -4.18,1.632 -1.659,1.117 -2.86,2.528 -3.602,4.232 -0.743,1.705 -0.957,3.61 -0.643,5.713 0.313,2.104 1.221,4.272 2.725,6.506 1.523,2.262 3.23,3.975 5.123,5.139 1.892,1.163 3.724,1.728 5.495,1.693 1.77,-0.034 3.499,-0.62 5.187,-1.755 1.243,-0.838 2.177,-1.802 2.799,-2.891 0.622,-1.09 0.949,-2.262 0.982,-3.517 C 12.53,5.288 12.199,3.82 11.504,2.138 L 9.026,2.82 C 9.539,4.172 9.783,5.278 9.759,6.137 9.734,6.995 9.494,7.817 9.038,8.604 8.581,9.392 7.929,10.07 7.08,10.642 5.846,11.472 4.582,11.888 3.288,11.889 1.995,11.891 0.652,11.441 -0.74,10.543 -2.132,9.646 -3.44,8.287 -4.665,6.468 -6.53,3.696 -7.348,1.23 -7.118,-0.93 c 0.23,-2.162 1.273,-3.866 3.13,-5.116 0.886,-0.597 1.936,-0.995 3.15,-1.196 1.213,-0.2 2.291,-0.193 3.231,0.024 L 4.991,-3.358 0,0 z"
             id="path3241"
             style="fill:#000000;fill-opacity:1;fill-rule:nonzero;stroke:none" /></g><g
           transform="translate(180.8936,123.7188)"
           id="g3243"><path
             d="M 0,0 11.153,22.357 13.579,21.147 3.741,1.428 12.77,-3.076 11.454,-5.715 0,0 z"
             id="path3245"
             style="fill:#000000;fill-opacity:1;fill-rule:nonzero;stroke:none" /></g><g
           transform="translate(202.3081,125.0781)"
           id="g3247"><path
             d="M 0,0 6.527,-2.354 6.871,4.88 C 6.972,7.102 7.104,8.891 7.266,10.246 6.476,8.827 5.589,7.456 4.604,6.133 L 0,0 z m -9.048,-7.646 15.89,20.836 2.742,-0.989 -0.59,-26.357 -2.919,1.053 0.324,7.931 -8.051,2.904 -4.685,-6.357 -2.711,0.979 z"
             id="path3249"
             style="fill:#000000;fill-opacity:1;fill-rule:nonzero;stroke:none" /></g><g
           transform="translate(216.6455,112.7246)"
           id="g3251"><path
             d="M 0,0 4.262,-0.937 C 5.981,-1.314 7.347,-1.321 8.358,-0.955 9.369,-0.59 10.25,0.162 11,1.3 c 0.996,1.515 1.748,3.427 2.255,5.735 0.544,2.475 0.635,4.493 0.275,6.056 -0.361,1.562 -1.016,2.698 -1.966,3.408 -0.639,0.477 -1.73,0.885 -3.272,1.225 L 4.097,18.646 0,0 z m -3.28,-2.299 5.362,24.405 6.909,-1.518 c 1.709,-0.375 2.974,-0.81 3.797,-1.305 1.08,-0.644 1.933,-1.576 2.561,-2.796 0.628,-1.22 1.008,-2.668 1.14,-4.342 C 16.621,10.469 16.451,8.555 15.978,6.401 15.371,3.638 14.45,1.383 13.217,-0.365 11.983,-2.112 10.643,-3.249 9.196,-3.774 7.749,-4.3 5.998,-4.337 3.945,-3.886 l -7.225,1.587 z"
             id="path3253"
             style="fill:#000000;fill-opacity:1;fill-rule:nonzero;stroke:none" /></g><g
           transform="translate(234.208,106.4043)"
           id="g3255"><path
             d="M 0,0 3.097,24.785 5.785,24.449 2.688,-0.336 0,0 z"
             id="path3257"
             style="fill:#000000;fill-opacity:1;fill-rule:nonzero;stroke:none" /></g><g
           transform="translate(243.957,117.4033)"
           id="g3259"><path
             d="m 0,0 c -0.089,-3.077 0.521,-5.483 1.828,-7.22 1.308,-1.736 2.932,-2.633 4.874,-2.688 1.986,-0.058 3.677,0.751 5.071,2.427 1.395,1.676 2.141,4.177 2.237,7.502 0.061,2.146 -0.229,4.075 -0.873,5.787 -0.496,1.309 -1.27,2.368 -2.32,3.176 C 9.767,9.793 8.606,10.216 7.334,10.253 5.291,10.312 3.583,9.509 2.212,7.844 0.839,6.18 0.102,3.564 0,0 m -2.792,0.132 c 0.123,4.257 1.153,7.502 3.093,9.735 1.939,2.234 4.305,3.311 7.098,3.23 1.805,-0.052 3.436,-0.611 4.894,-1.675 1.458,-1.065 2.593,-2.583 3.405,-4.555 0.813,-1.971 1.18,-4.304 1.103,-6.993 -0.108,-3.702 -1.034,-6.691 -2.782,-8.97 -1.924,-2.512 -4.384,-3.725 -7.381,-3.639 -3.021,0.088 -5.412,1.473 -7.175,4.161 -1.601,2.432 -2.353,5.334 -2.255,8.706"
             id="path3261"
             style="fill:#000000;fill-opacity:1;fill-rule:nonzero;stroke:none" /></g><g
           transform="translate(277.6143,106.6211)"
           id="g3263"><path
             d="m 0,0 -11.63,23.494 2.897,0.444 8.019,-17.133 C -0.097,5.474 0.464,4.18 0.966,2.924 1.073,4.33 1.226,5.733 1.425,7.132 L 4.154,25.911 6.883,26.328 2.746,0.42 0,0 z"
             id="path3265"
             style="fill:#000000;fill-opacity:1;fill-rule:nonzero;stroke:none" /></g><g
           transform="translate(290.688,108.9023)"
           id="g3267"><path
             d="M 0,0 -6.794,24.047 7.46,28.073 8.262,25.236 -3.384,21.946 -1.304,14.58 9.604,17.663 10.402,14.842 -0.506,11.76 1.806,3.574 13.912,6.994 14.714,4.156 0,0 z"
             id="path3269"
             style="fill:#000000;fill-opacity:1;fill-rule:nonzero;stroke:none" /></g><g
           transform="translate(305.897,128.1895)"
           id="g3271"><path
             d="M 0,0 5.354,2.303 C 6.523,2.806 7.349,3.328 7.833,3.871 8.318,4.413 8.607,5.063 8.702,5.821 8.796,6.579 8.67,7.36 8.325,8.164 7.826,9.322 7.095,10.087 6.132,10.458 5.168,10.829 4.019,10.727 2.683,10.152 L -3.267,7.593 0,0 z m 3.027,-13.894 -9.874,22.952 8.344,3.589 c 1.743,0.75 3.122,1.09 4.135,1.019 1.014,-0.07 2.002,-0.49 2.963,-1.258 0.961,-0.767 1.724,-1.809 2.29,-3.124 C 11.63,7.552 11.783,5.953 11.343,4.489 10.902,3.026 9.884,1.777 8.288,0.745 9.167,0.629 9.881,0.435 10.43,0.164 c 1.118,-0.559 2.191,-1.254 3.217,-2.086 l 5.975,-4.832 -3.131,-1.347 -4.559,3.698 C 10.158,-2.953 8.883,-2.011 8.109,-1.577 7.334,-1.144 6.667,-0.914 6.106,-0.89 5.545,-0.865 4.848,-1.032 4.013,-1.391 l -2.881,-1.24 4.385,-10.191 -2.49,-1.072 z"
             id="path3273"
             style="fill:#000000;fill-opacity:1;fill-rule:nonzero;stroke:none" /></g><g
           transform="translate(328.1631,123.1904)"
           id="g3275"><path
             d="M 0,0 -12.033,21.899 -9.658,23.204 2.375,1.305 0,0 z"
             id="path3277"
             style="fill:#000000;fill-opacity:1;fill-rule:nonzero;stroke:none" /></g><g
           transform="translate(339.0518,129.6719)"
           id="g3279"><path
             d="m 0,0 -12.242,18.319 -5.611,-3.749 -1.637,2.451 13.502,9.023 1.637,-2.451 L -9.989,19.824 2.252,1.506 0,0 z"
             id="path3281"
             style="fill:#000000;fill-opacity:1;fill-rule:nonzero;stroke:none" /></g><g
           transform="translate(345.1333,146.8086)"
           id="g3283"><path
             d="m 0,0 5.229,4.557 -6.151,3.817 c -1.893,1.168 -3.391,2.153 -4.496,2.954 0.855,-1.38 1.622,-2.821 2.3,-4.325 L 0,0 z M 2.281,-11.618 -8.195,12.388 -5.999,14.303 16.735,0.976 14.396,-1.063 7.627,3.075 1.178,-2.545 4.452,-9.727 2.281,-11.618 z"
             id="path3285"
             style="fill:#000000;fill-opacity:1;fill-rule:nonzero;stroke:none" /></g><g
           transform="translate(356.667,154.0273)"
           id="g3287"><path
             d="M 0,0 1.472,2.106 C 2.599,1.307 3.609,0.838 4.505,0.698 5.4,0.56 6.318,0.676 7.259,1.047 c 0.94,0.371 1.78,0.981 2.518,1.83 1.059,1.217 1.584,2.421 1.574,3.611 C 11.34,7.68 10.859,8.689 9.908,9.518 9.351,10.002 8.758,10.303 8.13,10.421 7.502,10.538 6.841,10.466 6.146,10.205 5.452,9.942 4.152,9.202 2.248,7.983 0.552,6.898 -0.783,6.238 -1.758,6.002 -2.731,5.766 -3.704,5.768 -4.675,6.011 c -0.971,0.243 -1.881,0.732 -2.73,1.47 -1.525,1.329 -2.343,2.907 -2.454,4.735 -0.111,1.828 0.561,3.578 2.015,5.249 1,1.148 2.101,1.956 3.304,2.422 1.205,0.466 2.437,0.568 3.7,0.305 1.262,-0.262 2.483,-0.877 3.661,-1.841 L 1.289,16.227 c -1.315,0.963 -2.542,1.387 -3.682,1.273 -1.139,-0.115 -2.205,-0.744 -3.197,-1.883 -1.006,-1.158 -1.515,-2.266 -1.527,-3.325 -0.01,-1.061 0.395,-1.948 1.218,-2.664 0.763,-0.664 1.548,-0.956 2.356,-0.875 0.808,0.08 2.105,0.714 3.891,1.9 1.747,1.16 3.044,1.914 3.889,2.264 1.3,0.524 2.551,0.686 3.753,0.483 1.201,-0.203 2.347,-0.777 3.435,-1.724 1.08,-0.94 1.844,-2.048 2.29,-3.325 0.448,-1.279 0.524,-2.554 0.23,-3.826 C 13.65,3.252 12.97,2.004 11.904,0.777 10.241,-1.133 8.341,-2.157 6.204,-2.294 4.068,-2.43 2,-1.665 0,0"
             id="path3289"
             style="fill:#000000;fill-opacity:1;fill-rule:nonzero;stroke:none" /></g><g
           transform="translate(170.1895,398.2905)"
           id="g3291"><path
             d="M 0,0 C 1.97,1.43 5.11,0.49 6.99,-2.11 8.88,-4.71 8.811,-7.98 6.83,-9.41 4.86,-10.85 1.72,-9.9 -0.16,-7.31 -2.05,-4.71 -1.98,-1.44 0,0"
             id="path3293"
             style="fill:#bfbebe;fill-opacity:1;fill-rule:evenodd;stroke:none" /></g><g
           transform="translate(187.5195,370.3306)"
           id="g3295"><path
             d="m 0,0 124.62,-171.55 c 3.04,-4.16 4.45,-5.45 15.18,-16.82 -7.47,13.74 -8.25,15.49 -11.28,19.66 L 3.89,2.83 0,0 z"
             id="path3297"
             style="fill:#d3d2d2;fill-opacity:1;fill-rule:evenodd;stroke:none" /></g><g
           transform="translate(184.0195,367.4106)"
           id="g3299"><path
             d="m 0,0 c -0.94,-0.68 -0.64,-2.19 -0.25,-3.18 0.45,-1.14 1.55,-2.09 2.7,-2.49 1,-0.35 2.44,-0.3 3.17,0.22 l 0.73,1.27 c -1.48,-0.06 -2.25,0.22 -2.92,0.59 -2.18,1.2 -2,4.3 -1.1,5.28 L 0,0 z"
             id="path3301"
             style="fill:#bfbebe;fill-opacity:1;fill-rule:evenodd;stroke:none" /></g><g
           transform="translate(195.2695,375.5806)"
           id="g3303"><path
             d="M 0,0 C 0.93,0.68 2.28,-0.07 3.1,-0.75 4.05,-1.52 4.6,-2.86 4.64,-4.08 4.66,-5.14 4.17,-6.5 3.44,-7.04 L 2.01,-7.33 c 0.52,1.39 0.49,2.21 0.34,2.95 -0.47,2.45 -3.48,3.24 -4.68,2.69 L 0,0 z"
             id="path3305"
             style="fill:#bfbebe;fill-opacity:1;fill-rule:evenodd;stroke:none" /></g><g
           transform="translate(168.4595,389.2305)"
           id="g3307"><path
             d="m 0,0 c 2.06,-1.9 2.791,-2.69 2.791,-4.71 0,-4.15 -1.691,-7.06 -1.631,-9.22 0.06,-2.53 1.09,-5.19 4.61,-7.03 1.35,-0.76 3.17,-0.95 4.58,-1.08 l 2.37,1.72 c -2.34,0.52 -4.53,1.19 -6.28,2.64 -0.98,0.81 -1.97,2.07 -2.12,3.17 -0.41,3.16 1.45,6.24 1.84,9.32 0.14,1.2 -0.24,3.81 -1.58,4.86 C 3.38,0.61 0.96,1.15 0,0"
             id="path3309"
             style="fill:#bfbebe;fill-opacity:1;fill-rule:evenodd;stroke:none" /></g><g
           transform="translate(175.0693,387.4604)"
           id="g3311"><path
             d="m 0,0 c -0.149,-2.08 9.11,-14.83 11.16,-15.3 1.66,-0.37 3.71,1.1 3.83,2.79 C 15.22,-10.39 5.89,2.31 3.84,2.84 2.23,3.2 0.19,1.73 0,0"
             id="path3313"
             style="fill:#ed1c24;fill-opacity:1;fill-rule:evenodd;stroke:none" /></g><g
           transform="translate(190.3999,375.5806)"
           id="g3315"><path
             d="m 0,0 c 0.04,1.87 -0.1,2.94 -1.64,3.32 -1.6,0.39 -5.07,-1.41 -7.23,-2.81 -2.211,-1.45 -6.34,-1.05 -8.3,2.72 l 0.74,2.45 c 0.25,-1.82 2.349,-3.06 3.95,-3.02 2.05,0.05 6.419,3.31 10.84,3.72 1.62,0.15 4.87,-1.3 4.05,-4.63 L 0,0 z"
             id="path3317"
             style="fill:#bfbebe;fill-opacity:1;fill-rule:evenodd;stroke:none" /></g><g
           transform="translate(202.5298,368.9805)"
           id="g3319"><path
             d="m 0,0 1.88,-2.19 c 1.08,-1.48 -1.38,-5.09 -5.48,-8.07 -4.1,-2.98 -8.3,-4.2 -9.37,-2.73 l -1.47,2.5 c 1.07,-1.48 5.04,-0.42 9.14,2.56 4.1,2.98 6.37,6.45 5.3,7.93"
             id="path3321"
             style="fill:#bfbebe;fill-opacity:1;fill-rule:evenodd;stroke:none" /></g><g
           transform="translate(204.4097,366.7905)"
           id="g3323"><path
             d="m 0,0 -1.88,2.19 c -1.33,1.28 -5.33,0.21 -9.18,-2.59 -3.85,-2.79 -6.11,-6.27 -5.26,-7.9 l 1.47,-2.5 c -0.85,1.64 1.63,5.27 5.48,8.07 C -5.52,0.07 -1.33,1.28 0,0"
             id="path3325"
             style="fill:#bfbebe;fill-opacity:1;fill-rule:evenodd;stroke:none" /></g><g
           transform="translate(189.5498,356.0205)"
           id="g3327"><path
             d="m 0,0 -0.11,0.3 c -0.08,0.33 -0.06,0.72 0.05,1.14 l 0.12,0.37 0.01,0 0.24,0 0.07,0 L 0.2,1.38 C 0.05,0.96 -0.03,0.56 -0.03,0.22 L 0,0 z m 14.87,10.76 -0.24,0.11 c -0.38,0.12 -0.85,0.16 -1.38,0.12 l -0.24,-0.03 0.04,0.11 0.07,0.2 0.26,0.01 c 0.64,-0.03 1.15,-0.19 1.48,-0.51 l -1.88,2.19 1.88,-2.19 0.01,-0.01 z"
             id="path3329"
             style="fill:#a7a5a6;fill-opacity:1;fill-rule:evenodd;stroke:none" /></g><g
           transform="translate(194.3594,363.5405)"
           id="g3331"><path
             d="M 0,0 0.021,0.02 C 0.24,0.19 0.46,0.36 0.68,0.52 L 0,0 z m -0.65,-0.53 0.041,0.04 0.389,0.31 -0.43,-0.35 z m -0.61,-0.54 0.051,0.05 0.299,0.27 -0.35,-0.32 z m -0.58,-0.55 0.07,0.07 0.24,0.23 -0.31,-0.3 z m -0.54,-0.55 0.08,0.09 0.2,0.2 -0.28,-0.29 z m -3.89,-2.88 -0.01,0.02 0,0.01 0.01,-0.03 z m 3.39,2.33 0.1,0.1 0.16,0.19 -0.26,-0.29 z m -0.44,-0.55 0.091,0.12 0.139,0.16 -0.23,-0.28 z m -0.4,-0.54 0.09,0.14 0.11,0.13 -0.2,-0.27 z m -0.35,-0.53 0.091,0.15 0.079,0.12 -0.17,-0.27 z m -0.3,-0.51 0.09,0.16 0.06,0.1 -0.15,-0.26 z M 7.521,3.69 C 5.63,3.4 3.09,2.27 0.68,0.52 3.09,2.27 5.63,3.4 7.521,3.69 m -12.061,-8.88 0.01,0.02 0.01,0.02 -0.02,-0.04 z m -0.2,-0.47 0.011,0.02 0.009,0.03 -0.02,-0.05 z m -0.13,-0.45 0,0.03 0.011,0.03 -0.011,-0.06 z m -0.08,-0.41 0,0.03 0,0.02 0,-0.05 z m -0.02,-0.37 0,0.02 0,0.01 0,-0.03 z m 0.05,-0.33 z M 10.05,3.25 8.17,5.44 10.05,3.25 z"
             id="path3333"
             style="fill:#a7a5a6;fill-opacity:1;fill-rule:evenodd;stroke:none" /></g><g
           transform="translate(187.4297,370.4507)"
           id="g3335"><path
             d="M 0,0 0.57,-0.77 4.46,2.06 3.9,2.83 0,0 z"
             id="path3337"
             style="fill:#a7a5a6;fill-opacity:1;fill-rule:evenodd;stroke:none" /></g><g
           transform="translate(171.1895,364.8306)"
           id="g3339"><path
             d="m 0,0 c 0.52,0.49 3.311,-0.84 4.7,0.23 l 22.31,16.21 c 3.89,2.83 6.1,2.64 7.97,1.55 1.02,-0.6 1.93,-1.59 2.05,-2.67 0.11,-1 -0.02,-3.32 -1.26,-2.76 -0.09,2.38 -3.74,4.08 -6.02,2.31 L 5,-3.11 C 3.311,-4.08 0.34,-3.56 -0.3,-2.3 -0.71,-1.48 -0.57,-0.6 0,0"
             id="path3341"
             style="fill:#bfbebe;fill-opacity:1;fill-rule:evenodd;stroke:none" /></g><g
           transform="translate(314.7896,355.4004)"
           id="g3343"><path
             d="m 0,0 -51.75,-68.02 c 0,0 -3.86,-4.72 -5.2,-5.1 -0.05,1.44 3.49,6.41 3.49,6.41 L -1.71,1.31 0,0 z"
             id="path3345"
             style="fill:#a7a5a6;fill-opacity:1;fill-rule:evenodd;stroke:none" /></g><g
           transform="translate(334.9795,388.3203)"
           id="g3347"><path
             d="m 0,0 -24.57,-29.23 7.38,-5.62 L 4.43,-3.37 0,0 z"
             id="path3349"
             style="fill:#ed1c24;fill-opacity:1;fill-rule:evenodd;stroke:none" /></g><g
           transform="translate(310.2295,359.4507)"
           id="g3351"><path
             d="m 0,0 -96.88,-128.86 c 0,0 -28.7,-38.841 -31.599,-48.24 8.319,5.269 38.109,43.3 38.109,43.3 L 7.97,-6.06 0,0 z"
             id="path3353"
             style="fill:#cbc0bc;fill-opacity:1;fill-rule:evenodd;stroke:none" /></g><g
           transform="translate(316.4395,351.0303)"
           id="g3355"><path
             d="M 0,0 -0.11,0.09 C -2.1,1.82 -5.67,4.54 -7.86,6 L -7.97,6.07 -6.79,7.62 1.18,1.56 0,0 z"
             id="path3357"
             style="fill:#939192;fill-opacity:1;fill-rule:evenodd;stroke:none" /></g><g
           transform="translate(332.1797,335.6606)"
           id="g3359"><path
             d="m 0,0 c -11.45,14.54 -25.71,25.38 -42.77,32.54 l 2.25,2.95 C -23.46,28.34 -9.2,17.49 2.25,2.95 2.33,2.97 0,0 0,0"
             id="path3361"
             style="fill:#bfbebe;fill-opacity:1;fill-rule:evenodd;stroke:none" /></g><g
           transform="translate(334.9795,388.3203)"
           id="g3363"><path
             d="M 0,0 4.08,8.42 8.91,7.08 11.46,2.81 4.43,-3.37 0,0 z"
             id="path3365"
             style="fill:#bfbebe;fill-opacity:1;fill-rule:evenodd;stroke:none" /></g><g
           transform="translate(255.0796,147.5498)"
           id="g3367"><path
             d="m 0,0 c -18.51,14.491 -87.51,87.661 -89.02,177.681 l 0,0.04 0.04,0.02 c 42.02,18.5 68.15,50.96 88.97,74.09 l 0.04,-0.04 0.05,0.04 c 20.81,-23.13 46.95,-55.59 88.96,-74.09 l 0.05,-0.02 -0.01,-0.04 C 87.58,87.661 18.58,14.491 0.07,0 L 0.03,0.051 0,0 z"
             id="path3369"
             style="fill:#000000;fill-opacity:1;fill-rule:evenodd;stroke:none" /></g><g
           transform="translate(255.0796,153.3701)"
           id="g3371"><path
             d="m 0,0 c -17.65,13.811 -83.47,83.601 -84.91,169.47 l 0,0.04 0.04,0.02 c 40.08,17.64 65.01,48.6 84.86,70.66 l 0.04,-0.03 0.05,0.03 c 19.85,-22.06 44.78,-53.02 84.85,-70.66 l 0.04,-0.02 0,-0.04 C 83.53,83.601 17.72,13.811 0.07,0 L 0.03,0.041 0,0 z"
             id="path3373"
             style="fill:#ffffff;fill-opacity:1;fill-rule:evenodd;stroke:none" /></g><path
           d="m 230.47,264.081 49.3,0 0,49.3 -49.3,0 0,-49.3 z"
           id="path3375"
           style="fill:none;stroke:#000000;stroke-width:2.68000007;stroke-linecap:butt;stroke-linejoin:miter;stroke-miterlimit:4;stroke-opacity:1;stroke-dasharray:none" /><g
           transform="translate(254.8696,312.6104)"
           id="g3377"><path
             d="m 0,0 c 13.04,0 23.63,-10.59 23.63,-23.63 0,-13.04 -10.59,-23.63 -23.63,-23.63 -13.04,0 -23.63,10.59 -23.63,23.63 C -23.63,-10.59 -13.04,0 0,0 z"
             id="path3379"
             style="fill:none;stroke:#000000;stroke-width:2.68000007;stroke-linecap:butt;stroke-linejoin:miter;stroke-miterlimit:4;stroke-opacity:1;stroke-dasharray:none" /></g><g
           transform="translate(274.0396,277.5005)"
           id="g3381"><path
             d="M 0,0 -9.57,16.58 -19.15,33.17 -28.73,16.58 -38.31,0 -19.15,0 0,0 z"
             id="path3383"
             style="fill:none;stroke:#000000;stroke-width:2.68000007;stroke-linecap:butt;stroke-linejoin:miter;stroke-miterlimit:4;stroke-opacity:1;stroke-dasharray:none" /></g><g
           transform="translate(236.7798,228.1309)"
           id="g3385"><path
             d="m 0,0 7.36,0.02 0,-5.031 7.33,0 0,5.031 7.33,0 0,-5.031 7.33,0 0,5.031 7.33,0 0,-13.071 -4.58,-5.03 0,-30.17 -27.49,0 0,30.17 -4.58,5.03 L 0,0 z"
             id="path3387"
             style="fill:#bfbebe;fill-opacity:1;fill-rule:evenodd;stroke:none" /></g><g
           transform="translate(236.7798,228.1309)"
           id="g3389"><path
             d="m 0,0 7.36,0.02 0,-5.031 7.33,0 0,5.031 7.33,0 0,-5.031 7.33,0 0,5.031 7.33,0 0,-13.071 -4.58,-5.03 0,-30.17 -27.49,0 0,30.17 -4.58,5.03 L 0,0 z"
             id="path3391"
             style="fill:none;stroke:#000000;stroke-width:2.68000007;stroke-linecap:butt;stroke-linejoin:miter;stroke-miterlimit:4;stroke-opacity:1;stroke-dasharray:none" /></g><g
           transform="translate(259.7896,180.2402)"
           id="g3393"><path
             d="m 0,0 0,9.95 c 0,6.84 -9.55,6.84 -9.55,-0.01 l 0,-9.94"
             id="path3395"
             style="fill:none;stroke:#000000;stroke-width:2.68000007;stroke-linecap:butt;stroke-linejoin:miter;stroke-miterlimit:4;stroke-opacity:1;stroke-dasharray:none" /></g><g
           transform="translate(253.8799,188.6807)"
           id="g3397"><path
             d="M 0,0 C 0.88,0 1.6,-0.72 1.6,-1.601 1.6,-2.49 0.88,-3.21 0,-3.21 c -0.89,0 -1.61,0.72 -1.61,1.609 C -1.61,-0.72 -0.89,0 0,0"
             id="path3399"
             style="fill:#000000;fill-opacity:1;fill-rule:evenodd;stroke:none" /></g><g
           transform="translate(259.0996,212.8701)"
           id="g3401"><path
             d="M 0,0 0,-10.029"
             id="path3403"
             style="fill:none;stroke:#000000;stroke-width:2;stroke-linecap:butt;stroke-linejoin:bevel;stroke-miterlimit:4;stroke-opacity:1;stroke-dasharray:none" /></g><g
           transform="translate(256.0996,208.5908)"
           id="g3405"><path
             d="M 0,0 6.01,0"
             id="path3407"
             style="fill:none;stroke:#000000;stroke-width:2;stroke-linecap:butt;stroke-linejoin:bevel;stroke-miterlimit:4;stroke-opacity:1;stroke-dasharray:none" /></g><g
           transform="translate(298.6699,254.8003)"
           id="g3409"><path
             d="m 0,0 c 9.85,6.64 20.91,15.49 25.14,23.73 4.22,8.24 0.93,18.57 -9.05,16.29 -1.96,-0.44 -3.43,-1.17 -3.43,-1.17 -1.11,3.08 -8.44,9.02 -14.87,2.58 C -7.44,36.6 -6.64,24.13 -2.49,13.79 -0.8,9.57 0.2,4.43 0,0"
             id="path3411"
             style="fill:#ed1c24;fill-opacity:1;fill-rule:evenodd;stroke:none" /></g><g
           transform="translate(210.1094,245.1206)"
           id="g3413"><path
             d="M 0,0 9.46,-6.87 10.69,4.76 0,0 z"
             id="path3415"
             style="fill:#000000;fill-opacity:1;fill-rule:evenodd;stroke:none" /></g><g
           transform="translate(187.5396,307.6904)"
           id="g3417"><path
             d="m 0,0 27.51,-61.78 1.85,0.82 L 1.86,0.83 0,0 z"
             id="path3419"
             style="fill:#000000;fill-opacity:1;fill-rule:evenodd;stroke:none" /></g><g
           transform="translate(182.9897,304.4106)"
           id="g3421"><path
             d="M 0,0 14.24,-16.23 8.19,-2.63 0,0 z"
             id="path3423"
             style="fill:#000000;fill-opacity:1;fill-rule:evenodd;stroke:none" /></g><g
           transform="translate(194.8696,309.7007)"
           id="g3425"><path
             d="M 0,0 2.53,-21.45 -3.52,-7.85 0,0 z"
             id="path3427"
             style="fill:#000000;fill-opacity:1;fill-rule:evenodd;stroke:none" /></g><g
           transform="translate(252.4297,377.3804)"
           id="g3429"><path
             d="m 0,0 c -8.89,-13.21 -41.38,-59.74 -38.13,-57.11 l 10.08,7.15 c 4.9,5.51 10.21,14.71 12.3,16.92 1.69,1.73 4.52,4.96 7.1,8.81 L 5.16,-2.88 C 6.52,0.24 2.39,3.56 0,0"
             id="path3431"
             style="fill:#fabd41;fill-opacity:1;fill-rule:evenodd;stroke:none" /></g><g
           transform="translate(257.8096,377.3804)"
           id="g3433"><path
             d="m 0,0 c 8.89,-13.21 41.38,-59.74 38.13,-57.11 l -10.09,7.15 c -4.9,5.51 -10.2,14.71 -12.29,16.92 -1.69,1.73 -4.52,4.96 -7.11,8.81 L -5.16,-2.88 C -6.52,0.24 -2.4,3.56 0,0"
             id="path3435"
             style="fill:#fabd41;fill-opacity:1;fill-rule:evenodd;stroke:none" /></g><g
           transform="translate(238.2095,345.9902)"
           id="g3437"><path
             d="M 0,0 -3.94,1.49 -5.69,2.32 -5.28,2.91 0.78,0.88 0,0 z"
             id="path3439"
             style="fill:#c79e54;fill-opacity:1;fill-rule:evenodd;stroke:none" /></g><g
           transform="translate(269.5098,354.3003)"
           id="g3441"><path
             d="m 0,0 c -13.98,-9.26 -31.48,-4.73 -38.72,1.4 -1.91,0.71 -6.43,-2.31 -2.41,-4.62 5.02,-2.89 21.97,-12.42 43.64,-2.21 C 0.6,0.3 1.91,-5.74 0,0"
             id="path3443"
             style="fill:#fabd41;fill-opacity:1;fill-rule:evenodd;stroke:none" /></g><g
           transform="translate(255.1196,375.5703)"
           id="g3445"><path
             d="m 0,0 c 0.97,0 1.77,-0.79 1.77,-1.76 0,-0.98 -0.8,-1.77 -1.77,-1.77 -0.97,0 -1.76,0.79 -1.76,1.77 C -1.76,-0.79 -0.97,0 0,0"
             id="path3447"
             style="fill:#676465;fill-opacity:1;fill-rule:evenodd;stroke:none" /></g></g></g></g></svg>